<svg width="19" height="30" viewBox="0 0 19 30" fill="none" xmlns="http://www.w3.org/2000/svg">
<path d="M17.9056 28.5725V6.14679C17.9055 5.90646 17.8124 5.67224 17.6395 5.47726C17.4665 5.28227 17.2225 5.13638 16.942 5.06022L2.85398 1.24503C2.64215 1.18736 2.41646 1.1715 2.19559 1.19876C1.97471 1.22602 1.765 1.29563 1.58382 1.40182C1.40263 1.50801 1.25517 1.64772 1.15365 1.80941C1.05213 1.97109 0.999461 2.15009 1 2.3316V28.5725" stroke="#A0A3BD" stroke-width="1.6" stroke-linecap="round" stroke-linejoin="round"/>
<path d="M12.2686 21.3455V22.49" stroke="#A0A3BD" stroke-width="1.6" stroke-linecap="round" stroke-linejoin="round"/>
<path d="M12.2686 15.6228V16.7674" stroke="#A0A3BD" stroke-width="1.6" stroke-linecap="round" stroke-linejoin="round"/>
<path d="M12.2686 9.8999V11.0445" stroke="#A0A3BD" stroke-width="1.6" stroke-linecap="round" stroke-linejoin="round"/>
<path d="M6.63672 21.3455V22.49" stroke="#A0A3BD" stroke-width="1.6" stroke-linecap="round" stroke-linejoin="round"/>
<path d="M6.63672 15.6228V16.7674" stroke="#A0A3BD" stroke-width="1.6" stroke-linecap="round" stroke-linejoin="round"/>
<path d="M6.63672 9.8999V11.0445" stroke="#A0A3BD" stroke-width="1.6" stroke-linecap="round" stroke-linejoin="round"/>
</svg>
