<svg width="234" height="270" viewBox="0 0 234 270" fill="none" xmlns="http://www.w3.org/2000/svg">
<path d="M0.756329 90.1733V0.573334H19.9563V72.2533H47.4763V0.573334H66.6763V72.2533H94.1963V0.573334H113.396V90.1733H0.756329ZM182.456 72.2533H201.656C205.155 72.2533 207.928 71.3147 209.976 69.4373C212.11 67.4747 213.176 65 213.176 62.0133C213.176 59.0267 212.11 56.5947 209.976 54.7173C207.928 52.7547 205.155 51.7733 201.656 51.7733H182.456V72.2533ZM163.256 90.1733V0.573334H225.336V18.4933H182.456V33.8533H202.296C211.427 33.8533 218.808 36.5413 224.44 41.9173C230.158 47.208 233.016 53.9067 233.016 62.0133C233.016 70.12 230.158 76.8613 224.44 82.2373C218.808 87.528 211.427 90.1733 202.296 90.1733H163.256ZM1.99633 189.173V144.373H10.6363L25.9963 163.573L41.3563 144.373H49.9963V189.173H40.3963V159.733L25.9963 177.653L11.5963 159.733V189.173H1.99633ZM101.809 189.173V144.373H111.409V161.973H130.609V144.373H140.209V189.173H130.609V170.933H111.409V189.173H101.809ZM192.059 189.173V144.373H201.659V163.573L218.939 144.373H230.459L213.819 162.933L231.739 189.173H220.539L207.419 169.973L201.659 176.053V189.173H192.059ZM30.6545 269.173V235.573H37.8545V269.173H30.6545ZM1.13445 269.173V235.573H8.33445V246.613H14.8145C18.3665 246.613 21.2465 247.669 23.4545 249.781C25.6945 251.893 26.8145 254.597 26.8145 257.893C26.8145 261.189 25.6945 263.893 23.4545 266.005C21.2465 268.117 18.3665 269.173 14.8145 269.173H1.13445ZM8.33445 262.453H14.5745C16.0145 262.453 17.1665 262.037 18.0305 261.205C18.9265 260.341 19.3745 259.237 19.3745 257.893C19.3745 256.549 18.9265 255.461 18.0305 254.629C17.1665 253.765 16.0145 253.333 14.5745 253.333H8.33445V262.453ZM66.6657 269.173V235.573H73.1457L84.6657 249.973L96.1857 235.573H102.666V269.173H95.4657V247.093L84.6657 260.533L73.8657 247.093V269.173H66.6657ZM138.647 262.453H145.847C147.159 262.453 148.199 262.101 148.967 261.397C149.767 260.661 150.167 259.733 150.167 258.613C150.167 257.493 149.767 256.581 148.967 255.877C148.199 255.141 147.159 254.773 145.847 254.773H138.647V262.453ZM131.447 269.173V235.573H154.727V242.293H138.647V248.053H146.087C149.511 248.053 152.279 249.061 154.391 251.077C156.535 253.061 157.607 255.573 157.607 258.613C157.607 261.653 156.535 264.181 154.391 266.197C152.279 268.181 149.511 269.173 146.087 269.173H131.447ZM183.994 269.173V235.573H191.194V262.453H201.514V235.573H208.714V262.453H219.034V235.573H226.234V269.173H183.994Z" fill="#D4E2EC"/>
</svg>
