<svg width="19" height="27" viewBox="0 0 19 27" fill="none" xmlns="http://www.w3.org/2000/svg">
<path d="M15.5168 1.35205H3.63941C2.1817 1.35205 1 2.31211 1 3.4964V23.8677C1 25.052 2.1817 26.0121 3.63941 26.0121H15.5168C16.9745 26.0121 18.1562 25.052 18.1562 23.8677V3.4964C18.1562 2.31211 16.9745 1.35205 15.5168 1.35205Z" stroke="#A0A3BD" stroke-width="1.6" stroke-linecap="round" stroke-linejoin="round"/>
<path d="M13.9001 1.35205V2.75694C13.9001 3.12954 13.7179 3.48688 13.3936 3.75035C13.0693 4.01381 12.6295 4.16183 12.1708 4.16183H6.98314C6.52452 4.16183 6.08468 4.01381 5.76039 3.75035C5.43609 3.48688 5.25391 3.12954 5.25391 2.75694V1.35205" stroke="#A0A3BD" stroke-width="1.6" stroke-linecap="round" stroke-linejoin="round"/>
</svg>
