<svg width="347" height="65" viewBox="0 0 347 65" fill="none" xmlns="http://www.w3.org/2000/svg">
<g clip-path="url(#clip0_146518_42)">
<path d="M82.0934 16.1639C82.0934 16.0436 82.0732 15.9225 81.8552 15.9225H77.0871V10.8291H81.0006C81.2195 10.8291 81.2388 10.7098 81.2388 10.5886V9.66313C81.2388 9.54109 81.2195 9.42084 81.0006 9.42084H77.0871V4.95277H81.5369C81.7356 4.95277 81.7751 4.85211 81.7954 4.77191L82.133 3.74487C82.1735 3.64421 82.1128 3.54445 81.9343 3.54445H75.6962C75.4781 3.54445 75.457 3.66381 75.457 3.78496V17.0893C75.457 17.2096 75.4781 17.3307 75.6962 17.3307H81.8552C82.0732 17.3307 82.0934 17.2096 82.0934 17.0893V16.1639ZM86.9177 9.46094V3.785C86.9177 3.66386 86.8975 3.5445 86.6795 3.5445H85.5268C85.3087 3.5445 85.2885 3.66386 85.2885 3.785V17.0894C85.2885 17.2096 85.3087 17.3308 85.5268 17.3308H86.6794C86.8975 17.3308 86.9177 17.2096 86.9177 17.0894V10.871H88.2682C89.0235 10.871 89.5589 11.0313 89.9361 12.6017L90.4329 14.6336C90.5404 15.358 90.7837 16.0549 91.1494 16.6868C91.3585 16.9323 91.6136 17.1335 91.8999 17.2786C92.1861 17.4237 92.498 17.5098 92.8173 17.5321L93.1154 17.5722C93.2467 17.5956 93.3795 17.609 93.5128 17.6123C93.6517 17.6123 93.6913 17.5927 93.7519 17.3913L94.0491 16.4258C94.0887 16.3242 94.1291 16.1639 93.7713 16.1024L93.3932 16.0437C93.1084 16.0124 92.8425 15.8843 92.6388 15.6802C92.4267 15.3734 92.2839 15.0231 92.2204 14.6541L91.4862 11.9168C91.3931 11.5144 91.2027 11.1418 90.9321 10.8325C90.6615 10.5232 90.3193 10.287 89.9361 10.145C90.3419 9.89183 90.6854 9.54815 90.9403 9.14016C91.1952 8.73218 91.3548 8.27066 91.4071 7.79073L91.7042 6.66392C91.788 6.18406 91.9493 5.72148 92.1817 5.29483C92.2817 5.15516 92.4096 5.03823 92.5569 4.95156C92.7042 4.86489 92.8678 4.81038 93.0372 4.79154L93.3344 4.73097C93.6913 4.65081 93.6517 4.54925 93.6122 4.38892L93.3344 3.48301C93.2939 3.32268 93.2148 3.26211 93.0759 3.26211C93.0372 3.26211 92.9959 3.28171 92.9572 3.28171L92.7382 3.32268C92.14 3.39371 91.5815 3.66266 91.1495 4.08785C90.6932 4.72711 90.3871 5.46348 90.2544 6.24081L89.8772 7.72927C89.4605 9.36024 88.9444 9.4609 88.2682 9.4609L86.9177 9.46094ZM97.8606 13.2244H101.933L103.044 17.109C103.104 17.3512 103.224 17.3308 103.323 17.3308H104.635C104.702 17.3377 104.77 17.3307 104.834 17.3103C104.863 17.2826 104.882 17.2462 104.889 17.2064C104.897 17.1666 104.891 17.1256 104.873 17.0894L100.82 3.76542C100.741 3.52313 100.621 3.54451 100.523 3.54451H99.35C99.2304 3.54451 99.1311 3.52313 99.0519 3.76542L95.0189 17.0894C94.9398 17.3308 95.0585 17.3308 95.1983 17.3308H96.489C96.8266 17.3308 96.8073 17.2301 96.846 17.0894L97.8606 13.2244ZM101.555 11.816H98.2369L99.4502 7.36848C99.6266 6.73996 99.7657 6.10134 99.867 5.45602H99.9065C100.104 6.46168 100.224 6.8652 100.364 7.36848L101.555 11.816ZM110.392 4.95279H113.193C113.264 4.9636 113.337 4.9467 113.396 4.90552C113.455 4.86434 113.496 4.80195 113.512 4.73099L113.83 3.84558C113.848 3.785 113.949 3.5445 113.63 3.5445H105.803C105.585 3.5445 105.565 3.66386 105.565 3.785V4.7114C105.565 4.83165 105.585 4.95279 105.803 4.95279H108.763V17.0894C108.763 17.2096 108.782 17.3308 109.001 17.3308H110.154C110.372 17.3308 110.392 17.2096 110.392 17.0894V4.95279ZM123.024 16.1639C123.024 16.0436 123.005 15.9225 122.786 15.9225H118.017V10.8291H121.931C122.149 10.8291 122.169 10.7098 122.169 10.5886V9.66313C122.169 9.54109 122.149 9.42084 121.931 9.42084H118.017V4.95277H122.467C122.665 4.95277 122.707 4.85211 122.726 4.77191L123.063 3.74487C123.103 3.64421 123.043 3.54445 122.864 3.54445H116.627C116.408 3.54445 116.388 3.66381 116.388 3.78496V17.0893C116.388 17.2096 116.408 17.3307 116.627 17.3307H122.786C123.005 17.3307 123.024 17.2096 123.024 17.0893V16.1639ZM127.867 11.515H129.297C129.871 11.5698 130.45 11.4964 130.992 11.2999C131.535 11.1033 132.028 10.7886 132.437 10.3777C132.847 9.9669 133.162 9.47002 133.361 8.92219C133.56 8.37437 133.638 7.78894 133.59 7.20725C133.59 3.58364 130.967 3.54445 129.556 3.54445H126.477C126.259 3.54445 126.238 3.66381 126.238 3.78496V17.0893C126.238 17.2096 126.259 17.3307 126.477 17.3307H127.629C127.749 17.3307 127.867 17.3102 127.867 17.0893V11.515ZM127.867 10.1049V4.95279H129.398C130.708 4.95279 131.96 5.09442 131.96 7.30796C131.96 10.0444 130.112 10.1049 129.159 10.1049L127.867 10.1049ZM143.558 3.54445C143.495 3.53159 143.43 3.543 143.375 3.57645C143.32 3.6099 143.279 3.66298 143.26 3.72531L138.611 13.4257C138.389 13.9119 138.21 14.4172 138.075 14.9355H138.035C138.146 14.3447 138.213 13.7462 138.234 13.1451V3.78499C138.234 3.66384 138.214 3.54448 137.996 3.54448H136.844C136.626 3.54448 136.605 3.66384 136.605 3.78499V17.0894C136.602 17.1218 136.606 17.1546 136.617 17.1853C136.628 17.216 136.646 17.2439 136.668 17.2669C136.691 17.29 136.719 17.3077 136.749 17.3187C136.779 17.3297 136.812 17.3339 136.844 17.3308H138.075C138.142 17.3351 138.209 17.3181 138.266 17.2822C138.323 17.2462 138.367 17.1931 138.393 17.1303L143.26 6.98639C143.483 6.5 143.663 5.99442 143.797 5.47567H143.836C143.725 6.06683 143.659 6.66565 143.638 7.26698V17.0894C143.638 17.3103 143.757 17.3308 143.877 17.3308H145.028C145.148 17.3308 145.268 17.3103 145.268 17.0894V3.785C145.271 3.7525 145.266 3.71973 145.256 3.68904C145.245 3.65834 145.227 3.6305 145.204 3.6075C145.181 3.5845 145.154 3.56692 145.123 3.55603C145.093 3.54514 145.06 3.5412 145.028 3.5445L143.558 3.54445ZM156.012 10.8709V17.0893C156.012 17.3102 156.13 17.3307 156.249 17.3307H157.402C157.521 17.3307 157.641 17.3102 157.641 17.0893V3.785C157.641 3.66386 157.62 3.5445 157.402 3.5445H156.249C156.031 3.5445 156.012 3.66386 156.012 3.785V9.46094H150.905V3.785C150.905 3.66386 150.886 3.5445 150.667 3.5445H149.515C149.296 3.5445 149.276 3.66386 149.276 3.785V17.0894C149.276 17.2096 149.296 17.3308 149.515 17.3308H150.667C150.886 17.3308 150.905 17.2096 150.905 17.0894V10.871L156.012 10.8709ZM161.908 3.54445C161.69 3.54445 161.67 3.66381 161.67 3.78496V17.0893C161.67 17.2096 161.69 17.3307 161.908 17.3307H164.809C165.803 17.4201 166.802 17.2467 167.71 16.8274C168.324 16.4542 168.825 15.917 169.158 15.2746C169.491 14.6321 169.643 13.9093 169.597 13.1851C169.597 10.8104 168.067 9.1794 165.245 9.1794H163.299V4.95279H168.405C168.442 4.95816 168.479 4.95617 168.515 4.94693C168.55 4.93769 168.584 4.92138 168.613 4.89895C168.643 4.87652 168.668 4.8484 168.687 4.81621C168.705 4.78403 168.718 4.74841 168.723 4.7114L169.021 3.785C169.04 3.72532 169.101 3.5445 168.782 3.5445L161.908 3.54445ZM163.299 15.9224V10.5886H165.127C165.481 10.5574 165.839 10.6042 166.174 10.7258C166.509 10.8474 166.815 11.041 167.069 11.2932C167.324 11.5454 167.522 11.8503 167.649 12.1872C167.777 12.524 167.831 12.8848 167.808 13.2448C167.842 13.5998 167.799 13.9579 167.682 14.2942C167.565 14.6305 167.377 14.9368 167.131 15.1918C166.885 15.4468 166.587 15.6443 166.258 15.7705C165.929 15.8967 165.576 15.9486 165.225 15.9224L163.299 15.9224ZM179.685 3.98632C179.718 3.91714 179.739 3.8422 179.745 3.76541C179.745 3.62467 179.546 3.5641 179.506 3.5641L178.513 3.36279C178.354 3.3227 178.274 3.24164 178.156 3.66386L176.346 10.0248C176.101 10.8311 175.903 11.651 175.751 12.4806H175.691L174.877 10.1049L172.335 3.60418C172.195 3.26213 172.057 3.38327 171.957 3.40287L171.499 3.5445L171.103 3.66386C170.765 3.76541 170.864 3.92664 170.923 4.06737L174.441 13.1647C174.499 13.3456 174.54 13.4462 174.777 13.4462H175.394L175.196 14.1704C174.936 15.0772 174.599 16.2646 173.406 16.2646C172.893 16.2197 172.41 15.9995 172.036 15.6401C171.916 15.5386 171.798 15.4192 171.679 15.4192C171.636 15.4215 171.595 15.4358 171.559 15.4607C171.524 15.4856 171.497 15.52 171.48 15.56L171.063 16.4258C170.963 16.6262 171.003 16.7465 171.44 17.0288C172.013 17.4102 172.683 17.6131 173.368 17.6123C175.076 17.6123 175.91 16.7269 176.447 14.916L179.685 3.98632ZM183.912 11.515H185.343C185.916 11.5698 186.495 11.4964 187.037 11.2998C187.58 11.1033 188.073 10.7885 188.483 10.3777C188.892 9.96682 189.207 9.46995 189.406 8.92214C189.605 8.37433 189.683 7.78894 189.634 7.2073C189.634 3.58369 187.012 3.5445 185.601 3.5445H182.522C182.303 3.5445 182.283 3.66386 182.283 3.785V17.0894C182.283 17.2096 182.303 17.3308 182.522 17.3308H183.674C183.794 17.3308 183.912 17.3103 183.912 17.0894V11.515ZM183.912 10.1049V4.95279H185.443C186.753 4.95279 188.006 5.09442 188.006 7.30796C188.006 10.0444 186.158 10.1049 185.204 10.1049H183.912ZM198.61 4.95279C198.809 4.95279 198.849 4.85213 198.868 4.77193L199.206 3.74489C199.246 3.64423 199.186 3.54447 199.008 3.54447H192.888C192.67 3.54447 192.65 3.66383 192.65 3.78498V17.0894C192.65 17.2096 192.67 17.3308 192.888 17.3308H194.041C194.26 17.3308 194.279 17.2096 194.279 17.0894V4.95279H198.61ZM207.925 4.99288C207.944 4.9751 207.959 4.95332 207.969 4.92903C207.98 4.90474 207.984 4.87851 207.984 4.85213C207.952 4.68384 207.86 4.53341 207.725 4.42991C206.894 3.67922 205.82 3.26369 204.706 3.26213C200.594 3.26213 200.375 8.17288 200.375 10.3071C200.375 16.4258 202.877 17.6123 204.905 17.6123C205.999 17.6023 207.051 17.1872 207.864 16.4454C207.964 16.3652 208.123 16.2031 208.123 16.0623C208.125 15.9811 208.097 15.9022 208.043 15.8414L207.547 15.1974C207.529 15.1701 207.506 15.147 207.478 15.1296C207.451 15.1123 207.42 15.1011 207.388 15.0968C207.348 15.0968 207.288 15.1164 207.01 15.3382C206.452 15.8617 205.741 16.1869 204.985 16.2645C202.422 16.2645 202.162 12.4601 202.162 9.84394C202.162 8.27355 202.143 4.61073 204.805 4.61073C205.588 4.65611 206.328 4.98453 206.892 5.53624C207.07 5.69747 207.17 5.799 207.25 5.799C207.308 5.799 207.348 5.73754 207.388 5.69747L207.925 4.99288ZM212.371 9.46094V3.785C212.371 3.66386 212.351 3.5445 212.133 3.5445H210.98C210.762 3.5445 210.742 3.66386 210.742 3.785V17.0894C210.742 17.2096 210.762 17.3308 210.98 17.3308H212.133C212.351 17.3308 212.371 17.2096 212.371 17.0894V10.871H213.722C214.477 10.871 215.014 11.0313 215.39 12.6017L215.888 14.6336C215.994 15.358 216.237 16.0551 216.603 16.6868C216.812 16.9324 217.067 17.1336 217.354 17.2787C217.64 17.4238 217.952 17.5099 218.272 17.5321L218.57 17.5722C218.701 17.5957 218.834 17.6091 218.967 17.6123C219.105 17.6123 219.146 17.5927 219.205 17.3913L219.502 16.4258C219.543 16.3242 219.582 16.1639 219.225 16.1024L218.847 16.0437C218.562 16.0124 218.296 15.8843 218.092 15.6802C217.881 15.3729 217.739 15.0228 217.675 14.6541L216.939 11.9168C216.846 11.5145 216.656 11.142 216.386 10.8327C216.115 10.5234 215.773 10.2871 215.39 10.145C215.796 9.89209 216.14 9.54846 216.394 9.14042C216.649 8.73239 216.809 8.27074 216.86 7.79077L217.158 6.66396C217.242 6.18409 217.403 5.72152 217.636 5.29487C217.736 5.15516 217.863 5.0382 218.011 4.95152C218.158 4.86483 218.321 4.81035 218.49 4.79158L218.788 4.73101C219.146 4.65085 219.105 4.54929 219.066 4.38896L218.788 3.48305C218.782 3.41909 218.752 3.35995 218.703 3.31855C218.655 3.27715 218.592 3.25688 218.529 3.26215C218.49 3.26215 218.451 3.28175 218.41 3.28175L218.192 3.32272C217.594 3.39391 217.035 3.66282 216.603 4.08789C216.147 4.72711 215.841 5.46356 215.709 6.24085L215.331 7.72931C214.914 9.36028 214.398 9.46094 213.722 9.46094H212.371ZM229.036 3.5445C228.973 3.53155 228.907 3.54292 228.852 3.57638C228.797 3.60985 228.756 3.66298 228.738 3.72536L224.088 13.4257C223.866 13.9119 223.686 14.4172 223.551 14.9356H223.513C223.623 14.3447 223.69 13.7462 223.711 13.1451V3.78503C223.711 3.66389 223.692 3.54453 223.472 3.54453H222.321C222.101 3.54453 222.081 3.66389 222.081 3.78503V17.0894C222.078 17.122 222.082 17.1549 222.094 17.1856C222.105 17.2164 222.122 17.2443 222.145 17.2673C222.168 17.2904 222.196 17.3081 222.226 17.319C222.257 17.33 222.289 17.334 222.321 17.3308H223.551C223.618 17.3351 223.685 17.3182 223.742 17.2822C223.8 17.2463 223.844 17.1932 223.87 17.1304L228.738 6.98642C228.96 6.49985 229.139 5.9943 229.273 5.4757H229.314C229.202 6.06679 229.136 6.66565 229.115 7.26701V17.0894C229.115 17.3103 229.234 17.3308 229.353 17.3308H230.505C230.625 17.3308 230.744 17.3103 230.744 17.0894V3.785C230.747 3.7525 230.743 3.71973 230.732 3.68904C230.721 3.65834 230.704 3.6305 230.681 3.6075C230.658 3.5845 230.63 3.56693 230.6 3.55603C230.569 3.54514 230.537 3.5412 230.505 3.5445H229.036ZM241.706 3.5445C241.643 3.53182 241.578 3.5433 241.523 3.57673C241.468 3.61015 241.427 3.66313 241.408 3.72536L236.76 13.4257C236.537 13.9118 236.357 14.4171 236.223 14.9355H236.184C236.294 14.3446 236.361 13.7461 236.383 13.1451V3.78499C236.383 3.66385 236.362 3.54449 236.144 3.54449H234.992C234.774 3.54449 234.753 3.66385 234.753 3.78499V17.0894C234.749 17.1219 234.754 17.1547 234.765 17.1855C234.776 17.2162 234.793 17.2441 234.816 17.2672C234.839 17.2903 234.866 17.3079 234.897 17.3189C234.927 17.3299 234.96 17.334 234.992 17.3308H236.223C236.29 17.3351 236.357 17.3181 236.414 17.2822C236.471 17.2462 236.515 17.1931 236.541 17.1303L241.408 6.98638C241.631 6.50016 241.811 5.99454 241.945 5.47566H241.984C241.874 6.06688 241.807 6.66567 241.785 7.26697V17.0894C241.785 17.3103 241.905 17.3308 242.025 17.3308H243.176C243.296 17.3308 243.416 17.3103 243.416 17.0894V3.785C243.419 3.7525 243.414 3.71973 243.403 3.68903C243.392 3.65834 243.375 3.63049 243.352 3.60749C243.329 3.58449 243.302 3.56692 243.271 3.55603C243.241 3.54513 243.208 3.5412 243.176 3.5445H241.706ZM237.773 0.181872C237.733 -0.0586287 237.555 0.00101465 237.435 0.022421L236.72 0.142676C236.655 0.150963 236.595 0.185164 236.554 0.237859C236.513 0.290555 236.494 0.357496 236.501 0.424162C236.503 0.527897 236.524 0.630431 236.561 0.727014C236.678 1.20862 236.926 1.64745 237.276 1.99368C237.771 2.4431 238.419 2.68118 239.084 2.65818C239.748 2.68114 240.396 2.44308 240.892 1.99368C241.243 1.6477 241.491 1.20878 241.607 0.727023C241.644 0.630321 241.664 0.527829 241.666 0.424171C241.674 0.357611 241.655 0.290709 241.614 0.238002C241.573 0.185296 241.514 0.151043 241.448 0.142686L240.733 0.0224309C240.614 0.00106406 240.436 -0.058609 240.395 0.181882L240.337 0.483854C240.295 0.790608 240.146 1.07182 239.916 1.27542C239.685 1.47902 239.39 1.59121 239.085 1.59121C238.779 1.59121 238.484 1.47902 238.254 1.27542C238.023 1.07182 237.874 0.790608 237.832 0.483854L237.773 0.181872ZM254.848 15.9225V3.785C254.848 3.66386 254.829 3.5445 254.611 3.5445H253.458C253.24 3.5445 253.22 3.66386 253.22 3.785V17.0894C253.22 17.2096 253.24 17.3308 253.458 17.3308H261.147V20.7736C261.147 20.9945 261.266 21.0141 261.385 21.0141H262.538C262.657 21.0141 262.775 20.9945 262.775 20.7736V16.2841C262.775 16.0436 262.855 15.9225 262.379 15.9225H261.385V3.785C261.385 3.66386 261.365 3.5445 261.147 3.5445H259.994C259.776 3.5445 259.756 3.66386 259.756 3.785V15.9225H254.848ZM272.168 16.1639C272.168 16.0436 272.149 15.9225 271.931 15.9225H267.164V10.8291H271.076C271.294 10.8291 271.315 10.7098 271.315 10.5886V9.66313C271.315 9.54109 271.294 9.42084 271.076 9.42084H267.164V4.95277H271.612C271.811 4.95277 271.852 4.85211 271.871 4.77191L272.209 3.74487C272.248 3.64421 272.188 3.54445 272.011 3.54445H265.772C265.554 3.54445 265.533 3.66381 265.533 3.78496V17.0893C265.533 17.2096 265.554 17.3307 265.772 17.3307H271.931C272.149 17.3307 272.168 17.2096 272.168 17.0893L272.168 16.1639ZM282.099 10.871V17.0894C282.099 17.3103 282.218 17.3308 282.337 17.3308H283.489C283.609 17.3308 283.727 17.3103 283.727 17.0894V3.785C283.727 3.66386 283.708 3.5445 283.489 3.5445H282.337C282.118 3.5445 282.099 3.66386 282.099 3.785V9.46094H276.992V3.785C276.992 3.66386 276.973 3.5445 276.755 3.5445H275.602C275.384 3.5445 275.364 3.66386 275.364 3.785V17.0894C275.364 17.2096 275.384 17.3308 275.602 17.3308H276.755C276.973 17.3308 276.992 17.2096 276.992 17.0894V10.871H282.099ZM291.135 4.95279H293.935C294.006 4.96374 294.078 4.9469 294.138 4.90569C294.197 4.86449 294.238 4.80202 294.253 4.73099L294.572 3.84558C294.591 3.785 294.691 3.5445 294.373 3.5445H286.545C286.327 3.5445 286.307 3.66386 286.307 3.785V4.7114C286.307 4.83165 286.327 4.95279 286.545 4.95279H289.505V17.0894C289.505 17.2096 289.526 17.3308 289.744 17.3308H290.896C291.115 17.3308 291.135 17.2096 291.135 17.0894V4.95279ZM298.779 11.515H300.21C300.784 11.5697 301.362 11.4962 301.905 11.2996C302.447 11.1031 302.94 10.7882 303.349 10.3774C303.759 9.96657 304.074 9.46973 304.273 8.92198C304.472 8.37422 304.55 7.78889 304.501 7.20733C304.501 3.58372 301.879 3.54453 300.467 3.54453H297.389C297.17 3.54453 297.15 3.66389 297.15 3.78503V17.0894C297.15 17.2097 297.17 17.3308 297.389 17.3308H298.54C298.66 17.3308 298.779 17.3103 298.779 17.0894V11.515ZM298.779 10.105V4.95279H300.309C301.62 4.95279 302.872 5.09442 302.872 7.30796C302.872 10.0444 301.024 10.1049 300.07 10.1049L298.779 10.105Z" fill="#2583CE"/>
<path d="M80.1458 36.0712C80.097 35.6481 80.0104 35.2304 79.8873 34.8232L77.5441 27.8789C77.5037 27.7586 77.5037 27.6793 77.3252 27.6793H76.0337C75.7945 27.6793 75.7945 27.7987 75.7945 27.9198L75.041 41.2242C75.041 41.3052 75.041 41.4647 75.2784 41.4647H76.4311C76.6491 41.4647 76.6693 41.3445 76.6693 41.2242L76.9674 30.8789C76.9823 30.53 76.9755 30.1804 76.9472 29.8323H76.9867C77.0344 30.234 77.1141 30.6311 77.225 31.0197L79.5303 38.0237C79.6095 38.2651 79.7089 38.2455 79.8284 38.2455H80.4237C80.5239 38.2455 80.6223 38.2847 80.7226 38.0237L83.1264 31.0197C83.245 30.633 83.3248 30.2352 83.3647 29.8323H83.4051C83.3774 30.1805 83.3704 30.5299 83.384 30.8789L83.7023 41.2242C83.7023 41.3445 83.7216 41.4647 83.9397 41.4647H85.0923C85.3306 41.4647 85.3306 41.3053 85.3306 41.2242L84.5569 27.9198C84.5569 27.7987 84.5569 27.6793 84.3177 27.6793H83.0262C82.9084 27.6793 82.8872 27.6793 82.8081 27.8789L80.4439 34.8232C80.3207 35.2304 80.2344 35.6481 80.1863 36.0712H80.1458ZM95.6808 35.004V41.2242C95.6808 41.4451 95.7995 41.4647 95.9191 41.4647H97.0709C97.1905 41.4647 97.31 41.4451 97.31 41.2242V27.9198C97.31 27.7987 97.2907 27.6793 97.0709 27.6793H95.9191C95.701 27.6793 95.6808 27.7987 95.6808 27.9198V33.5949H90.5752V27.9198C90.5752 27.7987 90.5558 27.6793 90.3378 27.6793H89.1851C88.9671 27.6793 88.946 27.7987 88.946 27.9198V41.2242C88.946 41.3445 88.9671 41.4647 89.1851 41.4647H90.3378C90.5558 41.4647 90.5752 41.3445 90.5752 41.2242V35.004H95.6808ZM104.72 29.0867H107.521C107.592 29.0977 107.665 29.081 107.724 29.04C107.783 28.999 107.825 28.9367 107.841 28.8658L108.157 27.9804C108.176 27.9198 108.277 27.6793 107.958 27.6793H100.131C99.9125 27.6793 99.8923 27.7987 99.8923 27.9198V28.8453C99.8923 28.9665 99.9125 29.0867 100.131 29.0867H103.092V41.2242C103.092 41.3445 103.111 41.4647 103.329 41.4647H104.483C104.701 41.4647 104.72 41.3445 104.72 41.2242V29.0867ZM112.348 33.5949V27.9198C112.348 27.7987 112.329 27.6793 112.11 27.6793H110.958C110.74 27.6793 110.72 27.7987 110.72 27.9198V41.2242C110.72 41.3445 110.74 41.4647 110.958 41.4647H112.11C112.329 41.4647 112.348 41.3445 112.348 41.2242V35.004H113.7C114.454 35.004 114.991 35.1661 115.368 36.7357L115.865 38.7684C115.972 39.4926 116.215 40.1895 116.58 40.8216C116.79 41.0671 117.045 41.2682 117.331 41.4133C117.618 41.5584 117.93 41.6446 118.25 41.6669L118.547 41.707C118.678 41.7305 118.812 41.7439 118.945 41.7471C119.084 41.7471 119.124 41.7275 119.183 41.5262L119.481 40.5588C119.521 40.459 119.56 40.2987 119.203 40.2372L118.826 40.1767C118.541 40.1463 118.274 40.0188 118.07 39.815C117.858 39.5078 117.716 39.1572 117.653 38.788L116.918 36.0516C116.825 35.6493 116.634 35.2768 116.364 34.9675C116.094 34.6582 115.751 34.4219 115.368 34.2799C115.774 34.0263 116.117 33.6825 116.372 33.2743C116.627 32.8662 116.786 32.4046 116.839 31.9247L117.137 30.7979C117.22 30.3184 117.381 29.8561 117.613 29.4297C117.713 29.29 117.841 29.1731 117.988 29.0865C118.135 28.9998 118.299 28.9453 118.468 28.9264L118.766 28.8658C119.124 28.7856 119.084 28.6841 119.044 28.5229L118.766 27.6179C118.725 27.4566 118.646 27.397 118.507 27.397C118.468 27.397 118.428 27.4165 118.389 27.4165L118.17 27.4566C117.571 27.5284 117.013 27.7972 116.58 28.2218C116.124 28.8616 115.819 29.5982 115.687 30.3757L115.31 31.865C114.892 33.4951 114.375 33.5949 113.7 33.5949L112.348 33.5949ZM128.297 36.6555L130.879 32.7709C130.91 32.7296 130.931 32.6809 130.939 32.6293C130.94 32.5925 130.929 32.5563 130.907 32.527C130.885 32.4977 130.854 32.4772 130.818 32.4689L130.163 32.0859C130.123 32.0663 130.103 32.0467 130.064 32.0467C129.944 32.0467 129.905 32.1465 129.845 32.2062L126.508 36.4542C126.477 36.4775 126.452 36.5078 126.435 36.5427C126.418 36.5776 126.409 36.6161 126.409 36.6551C126.409 36.6941 126.418 36.7325 126.435 36.7674C126.452 36.8023 126.477 36.8326 126.508 36.8559L129.845 41.104C129.905 41.1636 129.944 41.2634 130.064 41.2634C130.103 41.2634 130.123 41.2438 130.163 41.2242L130.818 40.8412C130.854 40.8328 130.885 40.8121 130.907 40.7827C130.929 40.7532 130.94 40.7169 130.939 40.68C130.931 40.6287 130.91 40.5803 130.879 40.5392L128.297 36.6555ZM131.971 36.6555L134.554 32.7709C134.585 32.7295 134.605 32.6808 134.613 32.6293C134.615 32.5926 134.604 32.5565 134.582 32.5272C134.56 32.4979 134.529 32.4773 134.493 32.4689L133.837 32.0859C133.809 32.0644 133.775 32.0509 133.739 32.0467C133.619 32.0467 133.58 32.1465 133.521 32.2062L130.183 36.4542C130.152 36.4777 130.127 36.5081 130.11 36.5429C130.093 36.5778 130.084 36.6161 130.084 36.6551C130.084 36.694 130.093 36.7323 130.11 36.7672C130.127 36.802 130.152 36.8324 130.183 36.8559L133.521 41.104C133.58 41.1636 133.619 41.2634 133.739 41.2634C133.775 41.2592 133.809 41.2457 133.837 41.2242L134.493 40.8412C134.529 40.8328 134.56 40.812 134.582 40.7825C134.604 40.7531 134.615 40.7168 134.613 40.68C134.605 40.6288 134.585 40.5803 134.554 40.5392L131.971 36.6555ZM142.321 36.0712C142.272 35.648 142.186 35.2303 142.062 34.8232L139.719 27.8789C139.678 27.7586 139.678 27.6793 139.5 27.6793H138.208C137.971 27.6793 137.971 27.7987 137.971 27.9198L137.215 41.2242C137.215 41.3052 137.215 41.4647 137.454 41.4647H138.606C138.824 41.4647 138.845 41.3445 138.845 41.2242L139.143 30.8789C139.158 30.53 139.151 30.1804 139.122 29.8323H139.163C139.209 30.2341 139.289 30.6313 139.4 31.0197L141.705 38.0237C141.785 38.2651 141.883 38.2455 142.004 38.2455H142.6C142.698 38.2455 142.797 38.2847 142.897 38.0237L145.301 31.0197C145.42 30.6333 145.5 30.2354 145.539 29.8323H145.58C145.552 30.1805 145.545 30.53 145.558 30.8789L145.878 41.2242C145.878 41.3445 145.897 41.4647 146.115 41.4647H147.267C147.506 41.4647 147.506 41.3053 147.506 41.2242L146.731 27.9198C146.731 27.7987 146.731 27.6793 146.493 27.6793H145.202C145.083 27.6793 145.063 27.6793 144.983 27.8789L142.619 34.8232C142.496 35.2303 142.409 35.6481 142.361 36.0712H142.321ZM158.074 27.6793C158.011 27.6666 157.946 27.678 157.891 27.7112C157.836 27.7445 157.795 27.7972 157.776 27.8593L153.127 37.5605C152.905 38.0468 152.725 38.552 152.591 39.0703H152.551C152.662 38.4793 152.729 37.8804 152.75 37.279V27.9198C152.75 27.7987 152.73 27.6793 152.512 27.6793H151.36C151.142 27.6793 151.121 27.7987 151.121 27.9198V41.2242C151.118 41.2567 151.122 41.2894 151.133 41.3201C151.144 41.3507 151.161 41.3786 151.184 41.4016C151.207 41.4246 151.235 41.4422 151.265 41.4531C151.295 41.464 151.328 41.468 151.36 41.4647H152.591C152.658 41.4694 152.725 41.4524 152.782 41.4163C152.839 41.3801 152.884 41.3266 152.909 41.2634L157.776 31.1194C158 30.634 158.18 30.1289 158.313 29.6105H158.353C158.242 30.2016 158.175 30.8004 158.154 31.4018V41.2242C158.154 41.4451 158.273 41.4647 158.393 41.4647H159.545C159.664 41.4647 159.783 41.4451 159.783 41.2242V27.9198C159.787 27.8874 159.782 27.8547 159.772 27.824C159.761 27.7934 159.743 27.7656 159.72 27.7426C159.698 27.7196 159.67 27.702 159.64 27.6911C159.609 27.6801 159.577 27.6761 159.545 27.6793H158.074ZM165.425 33.5949V27.9198C165.425 27.7987 165.405 27.6793 165.187 27.6793H164.035C163.816 27.6793 163.796 27.7987 163.796 27.9198V41.2242C163.796 41.3445 163.816 41.4647 164.035 41.4647H165.187C165.405 41.4647 165.425 41.3445 165.425 41.2242V35.004H166.776C167.531 35.004 168.067 35.1661 168.444 36.7357L168.941 38.7684C169.048 39.4928 169.291 40.1897 169.657 40.8216C169.866 41.0671 170.121 41.2683 170.408 41.4134C170.694 41.5585 171.006 41.6447 171.325 41.6669L171.623 41.707C171.754 41.7304 171.887 41.7438 172.021 41.7471C172.159 41.7471 172.199 41.7275 172.26 41.5262L172.557 40.5588C172.596 40.459 172.637 40.2987 172.279 40.2372L171.901 40.1767C171.616 40.1463 171.35 40.0188 171.147 39.815C170.935 39.5079 170.792 39.1572 170.73 38.788L169.994 36.0516C169.901 35.6492 169.71 35.2766 169.44 34.9673C169.169 34.658 168.827 34.4218 168.444 34.2799C168.85 34.0267 169.193 33.6829 169.448 33.2747C169.703 32.8666 169.863 32.4048 169.915 31.9247L170.213 30.7979C170.296 30.3183 170.457 29.8559 170.689 29.4297C170.789 29.2898 170.917 29.1728 171.064 29.0861C171.212 28.9994 171.375 28.945 171.545 28.9264L171.842 28.8658C172.199 28.7856 172.159 28.6841 172.121 28.5229L171.842 27.6179C171.802 27.4566 171.723 27.397 171.584 27.397C171.545 27.397 171.504 27.4165 171.465 27.4165L171.246 27.4566C170.648 27.5284 170.09 27.7973 169.657 28.2218C169.201 28.8615 168.895 29.5981 168.763 30.3757L168.385 31.865C167.968 33.4951 167.452 33.5949 166.776 33.5949L165.425 33.5949ZM176.789 35.6489H178.219C178.793 35.7038 179.371 35.6304 179.913 35.4339C180.456 35.2374 180.949 34.9227 181.358 34.5119C181.768 34.1012 182.083 33.6044 182.282 33.0567C182.481 32.5089 182.559 31.9236 182.51 31.3421C182.51 27.7185 179.888 27.6793 178.478 27.6793H175.398C175.179 27.6793 175.159 27.7987 175.159 27.9198V41.2242C175.159 41.3445 175.179 41.4647 175.398 41.4647H176.549C176.669 41.4647 176.789 41.4451 176.789 41.2242V35.6489ZM176.789 34.2398V29.0867H178.318C179.629 29.0867 180.881 29.2283 180.881 31.4419C180.881 34.1792 179.033 34.2397 178.079 34.2397L176.789 34.2398ZM189.165 41.7471C190.953 41.7471 193.655 40.7405 193.655 34.5622C193.655 28.4035 190.973 27.3969 189.165 27.3969C184.754 27.3969 184.675 32.9517 184.675 34.5622C184.675 40.7209 187.297 41.7471 189.165 41.7471ZM189.165 40.3994C186.345 40.3994 186.463 36.4328 186.463 34.5622C186.463 32.7094 186.384 28.7456 189.165 28.7456C191.688 28.7456 191.866 31.8454 191.866 34.5622C191.866 36.4328 191.986 40.3994 189.165 40.3994ZM204.045 41.144C204.125 41.104 204.264 41.0826 204.264 40.9222C204.251 40.8404 204.217 40.7636 204.164 40.7004L200.568 34.2193L203.827 28.4436C203.879 28.3802 203.914 28.3036 203.927 28.2218C203.927 28.1211 203.847 28.0606 203.707 28L202.713 27.5778C202.595 27.5377 202.536 27.4566 202.316 27.8593L200.231 31.7839C200.034 32.1474 199.861 32.5239 199.714 32.9107L199.218 31.865L196.992 27.7185C196.853 27.4771 196.754 27.5377 196.655 27.5778L196.358 27.6793L195.661 27.9198C195.462 28 195.442 28.041 195.442 28.1407V28.1817C195.442 28.2423 195.484 28.2619 195.542 28.3821L198.74 34.2799L195.285 40.7601C195.264 40.8215 195.185 40.8812 195.185 41.0024C195.185 41.1235 195.264 41.1636 195.404 41.2242L196.397 41.5653C196.496 41.6072 196.576 41.6473 196.674 41.5261C196.695 41.486 196.754 41.405 196.774 41.3649L199.258 36.6349L199.714 35.6284C199.849 36.0207 200.022 36.3984 200.231 36.7561L202.655 41.2847C202.873 41.6864 202.932 41.6072 203.053 41.5653L204.045 41.144ZM213.56 27.6793C213.498 27.6667 213.433 27.6782 213.378 27.7114C213.323 27.7446 213.282 27.7973 213.263 27.8593L208.615 37.5605C208.392 38.0466 208.212 38.5519 208.078 39.0703H208.038C208.149 38.4792 208.216 37.8804 208.238 37.279V27.9198C208.238 27.7987 208.217 27.6793 207.998 27.6793H206.846C206.628 27.6793 206.608 27.7987 206.608 27.9198V41.2242C206.604 41.2566 206.609 41.2893 206.619 41.32C206.63 41.3506 206.648 41.3785 206.671 41.4014C206.693 41.4244 206.721 41.442 206.751 41.453C206.782 41.4639 206.814 41.4679 206.846 41.4647H208.078C208.145 41.4693 208.212 41.4522 208.269 41.4161C208.326 41.3799 208.37 41.3265 208.395 41.2634L213.263 31.1194C213.486 30.6338 213.666 30.1288 213.8 29.6105H213.839C213.729 30.2017 213.662 30.8005 213.64 31.4018V41.2242C213.64 41.4451 213.76 41.4647 213.88 41.4647H215.031C215.151 41.4647 215.271 41.4451 215.271 41.2242V27.9198C215.274 27.8873 215.269 27.8546 215.258 27.8239C215.247 27.7932 215.23 27.7653 215.207 27.7423C215.184 27.7193 215.157 27.7017 215.126 27.6908C215.096 27.68 215.063 27.676 215.031 27.6793H213.56ZM220.931 35.6489H222.361C222.935 35.7038 223.514 35.6304 224.056 35.4339C224.599 35.2375 225.092 34.9228 225.501 34.512C225.91 34.1013 226.226 33.6045 226.425 33.0567C226.624 32.509 226.702 31.9237 226.653 31.3421C226.653 27.7185 224.03 27.6793 222.62 27.6793H219.541C219.322 27.6793 219.303 27.7986 219.303 27.9198V41.2242C219.303 41.3444 219.322 41.4647 219.541 41.4647H220.693C220.812 41.4647 220.931 41.4451 220.931 41.2242V35.6489ZM220.931 34.2397V29.0867H222.461C223.773 29.0867 225.024 29.2283 225.024 31.4418C225.024 34.1792 223.177 34.2397 222.223 34.2397L220.931 34.2397ZM236.845 28.1211C236.878 28.0517 236.898 27.9768 236.904 27.9002C236.904 27.7586 236.705 27.6989 236.666 27.6989L235.673 27.4976C235.513 27.4566 235.435 27.3764 235.315 27.7986L233.507 34.1596C233.262 34.9656 233.063 35.7852 232.911 36.6145H232.852L232.037 34.2397L229.494 27.739C229.355 27.3969 229.215 27.5171 229.117 27.5376L228.659 27.6793L228.262 27.7986C227.924 27.9002 228.024 28.0605 228.084 28.2021L231.6 37.2995C231.659 37.4803 231.699 37.5801 231.937 37.5801H232.554L232.355 38.306C232.096 39.2119 231.759 40.3993 230.566 40.3993C230.053 40.3546 229.57 40.1344 229.196 39.7749C229.077 39.6733 228.957 39.554 228.838 39.554C228.795 39.5563 228.754 39.5707 228.719 39.5956C228.684 39.6205 228.656 39.6548 228.639 39.6947L228.222 40.5588C228.123 40.7601 228.163 40.8812 228.6 41.1636C229.172 41.545 229.842 41.7479 230.527 41.747C232.235 41.747 233.07 40.8616 233.607 39.0507L236.845 28.1211ZM241.075 35.6489H242.506C243.08 35.7037 243.658 35.6303 244.201 35.4338C244.743 35.2374 245.236 34.9226 245.646 34.5119C246.055 34.1011 246.37 33.6043 246.569 33.0566C246.768 32.5089 246.846 31.9236 246.797 31.3421C246.797 27.7185 244.176 27.6793 242.764 27.6793H239.685C239.467 27.6793 239.447 27.7987 239.447 27.9198V41.2242C239.447 41.3444 239.467 41.4647 239.685 41.4647H240.838C240.956 41.4647 241.075 41.4451 241.075 41.2242V35.6489ZM241.075 34.2397V29.0867H242.606C243.917 29.0867 245.169 29.2283 245.169 31.4419C245.169 34.1792 243.321 34.2397 242.367 34.2397L241.075 34.2397ZM255.777 29.0867C255.976 29.0867 256.015 28.9869 256.035 28.9068L256.373 27.8788C256.412 27.779 256.353 27.6793 256.174 27.6793H250.056C249.836 27.6793 249.816 27.7987 249.816 27.9198V41.2242C249.816 41.3444 249.837 41.4647 250.056 41.4647H251.207C251.425 41.4647 251.446 41.3444 251.446 41.2242V29.0867L255.777 29.0867ZM265.273 27.6793C265.21 27.6665 265.145 27.6778 265.09 27.7111C265.035 27.7443 264.994 27.7971 264.975 27.8592L260.326 37.5605C260.103 38.0467 259.924 38.552 259.79 39.0703H259.749C259.86 38.4792 259.927 37.8804 259.948 37.279V27.9198C259.948 27.7987 259.929 27.6793 259.71 27.6793H258.558C258.339 27.6793 258.319 27.7987 258.319 27.9198V41.2242C258.316 41.2567 258.32 41.2895 258.331 41.3202C258.342 41.3509 258.36 41.3787 258.383 41.4017C258.406 41.4247 258.433 41.4423 258.463 41.4532C258.494 41.4641 258.526 41.468 258.558 41.4647H259.79C259.857 41.4691 259.924 41.4521 259.981 41.4159C260.038 41.3798 260.082 41.3264 260.108 41.2634L264.975 31.1194C265.198 30.6338 265.378 30.1288 265.511 29.6105H265.552C265.44 30.2016 265.373 30.8004 265.352 31.4018V41.2242C265.352 41.4451 265.472 41.4647 265.59 41.4647H266.743C266.863 41.4647 266.981 41.4451 266.981 41.2242V27.9198C266.984 27.8874 266.98 27.8546 266.969 27.824C266.959 27.7933 266.941 27.7654 266.918 27.7424C266.896 27.7194 266.868 27.7018 266.838 27.6909C266.807 27.68 266.775 27.676 266.743 27.6793L265.273 27.6793ZM276.954 35.1857V41.2242C276.954 41.3444 276.975 41.4647 277.193 41.4647H278.345C278.465 41.4647 278.584 41.4451 278.584 41.2242V27.9198C278.584 27.7987 278.563 27.6793 278.345 27.6793H275.027C274.526 27.6465 274.023 27.7214 273.552 27.8991C273.081 28.0768 272.652 28.3533 272.294 28.7104C271.936 29.0675 271.656 29.4973 271.473 29.9715C271.29 30.4457 271.208 30.9538 271.232 31.4623C271.182 32.2171 271.407 32.9643 271.865 33.5619C272.323 34.1594 272.982 34.5655 273.716 34.7029C273.037 35.1131 272.544 35.7782 272.346 36.5539L271.67 38.9296C271.587 39.2453 271.453 39.5446 271.272 39.815C271.068 40.0188 270.802 40.1463 270.518 40.1767L270.14 40.2372C269.783 40.2987 269.822 40.459 269.862 40.5588L270.16 41.5262C270.259 41.8477 270.378 41.7667 270.796 41.707L271.054 41.6669C271.697 41.6122 272.294 41.3096 272.723 40.8216C273.065 40.2219 273.307 39.5691 273.438 38.8895L273.995 36.9165C274.071 36.4602 274.247 36.0269 274.51 35.649C274.652 35.4845 274.831 35.3568 275.031 35.2762C275.232 35.1957 275.448 35.1647 275.663 35.1858L276.954 35.1857ZM276.954 33.8772H275.325C274.995 33.9197 274.66 33.8857 274.345 33.7779C274.03 33.6701 273.743 33.4912 273.506 33.2548C273.269 33.0184 273.087 32.7306 272.976 32.413C272.865 32.0954 272.826 31.7564 272.863 31.4214C272.84 31.1072 272.885 30.7917 272.994 30.4966C273.103 30.2016 273.274 29.9339 273.494 29.7121C273.715 29.4903 273.981 29.3195 274.273 29.2116C274.565 29.1036 274.877 29.061 275.187 29.0867H276.954L276.954 33.8772ZM294.352 29.0867C294.55 29.0867 294.589 28.987 294.609 28.9068L294.948 27.8789C294.987 27.779 294.928 27.6793 294.749 27.6793H288.631C288.412 27.6793 288.391 27.7987 288.391 27.9198V41.2242C288.391 41.3445 288.412 41.4647 288.631 41.4647H289.782C290.001 41.4647 290.021 41.3445 290.021 41.2242V29.0867H294.352ZM298.762 29.0867H302.259V41.2242C302.259 41.4451 302.378 41.4647 302.496 41.4647H303.649C303.867 41.4647 303.888 41.3445 303.888 41.2242V27.9198C303.888 27.7987 303.867 27.6793 303.649 27.6793H297.49C297.272 27.6793 297.252 27.7987 297.252 27.9198L297.232 30.6972C297.261 33.1432 297.088 35.5874 296.715 38.0041C296.297 39.7349 295.483 40.0163 294.689 40.0974L294.47 40.117C294.292 40.1375 294.212 40.2782 294.272 40.5196L294.51 41.5654C294.549 41.7274 294.709 41.7471 294.828 41.7471C295.229 41.7352 295.625 41.6539 295.999 41.5066C297.093 41.0826 297.768 40.2568 298.205 38.2651C298.58 36.194 298.753 34.0906 298.722 31.9853L298.762 29.0867ZM309.409 37.3592H313.483L314.594 41.2438C314.655 41.4861 314.773 41.4647 314.873 41.4647H316.185C316.251 41.4714 316.319 41.4648 316.383 41.4451C316.412 41.4173 316.432 41.3809 316.439 41.3412C316.446 41.3015 316.44 41.2605 316.423 41.2242L312.371 27.9002C312.291 27.6579 312.171 27.6793 312.072 27.6793H310.9C310.78 27.6793 310.682 27.6579 310.602 27.9002L306.569 41.2242C306.49 41.4647 306.608 41.4647 306.748 41.4647H308.039C308.377 41.4647 308.358 41.3649 308.396 41.2242L309.409 37.3592ZM313.105 35.9509H309.787L311 31.5015C311.177 30.8735 311.316 30.2351 311.417 29.59H311.456C311.655 30.5965 311.774 30.9983 311.913 31.5015L313.105 35.9509ZM319.76 34.8027C319.76 35.0254 319.879 35.045 319.999 35.045H320.633C320.99 34.992 321.354 35.0241 321.696 35.1388C322.038 35.2535 322.349 35.4476 322.604 35.7057C322.859 35.9637 323.05 36.2785 323.164 36.625C323.277 36.9715 323.309 37.34 323.257 37.7012C323.257 39.7348 322.024 40.3993 320.893 40.3993C320.019 40.3218 319.194 39.9535 318.548 39.3518C318.479 39.2779 318.388 39.2288 318.289 39.2119C318.19 39.2119 318.171 39.2912 318.131 39.3322L317.634 39.9753C317.582 40.037 317.553 40.1164 317.555 40.198C317.555 40.3379 317.714 40.4991 317.813 40.5793C318.638 41.3275 319.706 41.743 320.814 41.7471C321.373 41.7867 321.933 41.7057 322.459 41.5094C322.985 41.3132 323.464 41.0061 323.863 40.6086C324.263 40.211 324.575 39.732 324.779 39.2032C324.983 38.6743 325.073 38.1078 325.045 37.5409C325.111 36.7839 324.907 36.0278 324.47 35.4106C324.032 34.7934 323.39 34.3563 322.66 34.1792C323.294 33.9124 323.83 33.4499 324.19 32.8575C324.55 32.2651 324.717 31.5728 324.666 30.8789C324.691 30.4029 324.615 29.927 324.442 29.4837C324.269 29.0404 324.004 28.6399 323.664 28.3096C323.325 27.9793 322.92 27.7268 322.476 27.5693C322.032 27.4118 321.559 27.353 321.091 27.3969C320.552 27.3876 320.017 27.4858 319.516 27.686C319.015 27.8863 318.558 28.1845 318.171 28.5638C318.035 28.667 317.943 28.818 317.912 28.9869C317.912 29.0134 317.917 29.0396 317.927 29.0639C317.937 29.0881 317.953 29.1099 317.972 29.1277L318.507 29.8323C318.548 29.8723 318.587 29.9329 318.647 29.9329H318.668C318.747 29.9329 318.806 29.8519 319.004 29.671C319.546 29.1216 320.267 28.7923 321.032 28.7455C321.925 28.7455 322.958 29.2889 322.958 31.0998C322.997 31.4521 322.957 31.8088 322.841 32.1433C322.725 32.4777 322.535 32.7811 322.287 33.0309C322.039 33.2807 321.738 33.4703 321.407 33.5855C321.076 33.7007 320.723 33.7386 320.376 33.6964H320.018C319.76 33.6964 319.759 33.8371 319.759 33.9386L319.76 34.8027ZM329.773 37.3592H333.845L334.958 41.2438C335.018 41.4861 335.136 41.4647 335.236 41.4647H336.547C336.613 41.4715 336.681 41.4649 336.745 41.4451C336.775 41.4177 336.795 41.3813 336.802 41.3415C336.809 41.3016 336.804 41.2605 336.786 41.2242L332.733 27.9002C332.653 27.6579 332.534 27.6793 332.435 27.6793H331.262C331.144 27.6793 331.044 27.6579 330.964 27.9002L326.931 41.2242C326.852 41.4647 326.971 41.4647 327.11 41.4647H328.401C328.74 41.4647 328.72 41.3649 328.759 41.2242L329.773 37.3592ZM333.468 35.9509H330.15L331.362 31.5015C331.54 30.8737 331.679 30.2353 331.778 29.5899H331.819C332.018 30.5965 332.136 30.9983 332.275 31.5015L333.468 35.9509ZM341.136 36.6554L338.554 40.5392C338.522 40.5797 338.501 40.6283 338.493 40.6799C338.491 40.7167 338.502 40.753 338.524 40.7825C338.546 40.8119 338.577 40.8327 338.613 40.8411L339.269 41.2241C339.308 41.2437 339.328 41.2633 339.367 41.2633C339.487 41.2633 339.526 41.1636 339.587 41.1039L342.924 36.8559C342.955 36.8327 342.98 36.8024 342.997 36.7675C343.015 36.7326 343.024 36.6941 343.024 36.655C343.024 36.6159 343.015 36.5773 342.997 36.5425C342.98 36.5076 342.955 36.4773 342.924 36.4541L339.587 32.2061C339.526 32.1464 339.487 32.0467 339.367 32.0467C339.328 32.0467 339.308 32.0663 339.269 32.0858L338.613 32.4689C338.577 32.4772 338.546 32.4978 338.524 32.5271C338.502 32.5564 338.491 32.5925 338.493 32.6292C338.5 32.6811 338.521 32.73 338.554 32.7708L341.136 36.6554ZM344.811 36.6554L342.228 40.5392C342.197 40.5803 342.177 40.6287 342.169 40.6799C342.167 40.7166 342.178 40.7529 342.2 40.7823C342.221 40.8118 342.253 40.8326 342.288 40.8411L342.944 41.2241C342.983 41.2437 343.003 41.2633 343.043 41.2633C343.163 41.2633 343.201 41.1636 343.262 41.1039L346.599 36.8559C346.63 36.8327 346.655 36.8024 346.672 36.7675C346.69 36.7326 346.699 36.6941 346.699 36.655C346.699 36.6159 346.69 36.5773 346.672 36.5425C346.655 36.5076 346.63 36.4773 346.599 36.4541L343.262 32.2061C343.201 32.1464 343.163 32.0467 343.043 32.0467C343.003 32.0467 342.983 32.0663 342.944 32.0858L342.288 32.4689C342.253 32.4773 342.222 32.4979 342.2 32.5272C342.178 32.5565 342.167 32.5926 342.169 32.6292C342.177 32.6807 342.197 32.7295 342.228 32.7708L344.811 36.6554Z" fill="#2583CE"/>
<path d="M10.5861 58.6782L11.7511 59.0416C11.5902 60.0675 11.1179 61.0171 10.3997 61.7584C9.76079 62.3543 8.91861 62.6759 8.05041 62.6554C7.3118 62.6764 6.58476 62.4661 5.96839 62.0533C5.3244 61.5603 4.83368 60.8903 4.55456 60.123C4.16852 59.1253 3.98203 58.0598 4.00593 56.9884C3.97653 55.9519 4.16348 54.9208 4.55456 53.9625C4.86755 53.2092 5.38566 52.5616 6.04836 52.0955C6.66958 51.6767 7.40093 51.4572 8.14707 51.4657C8.94597 51.4492 9.72243 51.7339 10.3258 52.2647C10.9841 52.8913 11.4306 53.7124 11.6016 54.611L10.4665 54.9441C10.0788 53.4423 9.298 52.6914 8.12421 52.6914C7.58437 52.6786 7.0541 52.8372 6.60757 53.1448C6.13745 53.505 5.78119 53.9962 5.58238 54.5584C5.30396 55.3365 5.17417 56.1612 5.19992 56.9884C5.12113 58.1525 5.39079 59.3135 5.97364 60.3198C6.19415 60.6669 6.49845 60.9511 6.85771 61.1456C7.21698 61.3402 7.61932 61.4386 8.02663 61.4315C8.33098 61.4355 8.63297 61.3769 8.91435 61.2593C9.19573 61.1418 9.45066 60.9676 9.66375 60.7474C10.1803 60.1744 10.5034 59.4497 10.5861 58.6782ZM18.9035 57.2058C18.805 55.6894 19.2306 54.1855 20.1072 52.9524C20.4584 52.4856 20.9122 52.1083 21.4324 51.8502C21.9527 51.5922 22.5252 51.4605 23.1045 51.4657C23.8598 51.4605 24.5981 51.6923 25.2181 52.1293C25.8905 52.6172 26.4149 53.2858 26.7321 54.0596C27.1247 55.0126 27.3147 56.0388 27.2895 57.0712C27.3503 58.4597 26.9721 59.8315 26.2099 60.987C25.8643 61.5045 25.3979 61.9275 24.8522 62.2185C24.3065 62.5095 23.6984 62.6596 23.0817 62.6553C22.465 62.6511 21.8589 62.4927 21.3172 62.1942C20.7755 61.8958 20.3148 61.4664 19.9761 60.9443C19.2411 59.8426 18.8659 58.535 18.9035 57.2058ZM20.0975 57.2227C20.0297 58.3283 20.3375 59.4241 20.9697 60.3279C21.213 60.6704 21.5335 60.9493 21.9045 61.1412C22.2756 61.3331 22.6864 61.4327 23.103 61.4315C23.5196 61.4304 23.9299 61.3286 24.2999 61.1347C24.6699 60.9407 24.9889 60.6602 25.2304 60.3163C25.8707 59.3512 26.1752 58.1974 26.0956 57.0374C26.1096 56.1843 25.9585 55.3366 25.6507 54.5424C25.4391 54.0042 25.0812 53.5378 24.6185 53.1973C24.1831 52.8685 23.6545 52.691 23.1115 52.6914C22.6897 52.6861 22.2729 52.7837 21.8962 52.9761C21.5196 53.1686 21.1943 53.4501 20.9478 53.7968C20.3049 54.815 20.0064 56.0175 20.0975 57.2227ZM34.2839 59.4122L35.3881 59.0567C35.487 59.6264 35.7142 60.1653 36.0519 60.6316C36.2068 60.8802 36.4221 61.0843 36.6772 61.2244C36.9323 61.3644 37.2187 61.4358 37.5088 61.4315C37.7707 61.443 38.0321 61.3996 38.2766 61.3039C38.5211 61.2083 38.7435 61.0624 38.9297 60.8756C39.116 60.6887 39.2621 60.4649 39.3589 60.2181C39.4557 59.9713 39.5012 59.707 39.4923 59.4416C39.5045 59.1774 39.4601 58.9137 39.3624 58.6685C39.2647 58.4233 39.1159 58.2024 38.9261 58.0208C38.503 57.6556 37.9575 57.469 37.4024 57.4997H36.8503V56.2446C37.2568 56.2573 37.6634 56.2199 38.061 56.1333C38.3677 56.0351 38.632 55.8337 38.8101 55.5623C39.0384 55.2483 39.1575 54.8664 39.1486 54.4765C39.149 54.0358 38.9986 53.6087 38.723 53.2677C38.576 53.0846 38.3881 52.9396 38.1749 52.8446C37.9616 52.7497 37.7291 52.7075 37.4965 52.7217C37.1017 52.7118 36.7161 52.8437 36.408 53.094C36.0909 53.3638 35.8599 53.7227 35.7442 54.1255C35.6209 54.4814 35.5513 54.854 35.5376 55.2309L34.4333 54.9209C34.7041 52.6175 35.731 51.4657 37.5141 51.4657C37.8978 51.4475 38.2806 51.5179 38.6335 51.6716C38.9864 51.8253 39.3003 52.0583 39.5513 52.3529C40.0417 52.924 40.3071 53.6581 40.2969 54.415C40.3124 54.8731 40.2148 55.3279 40.0129 55.7381C39.811 56.1482 39.5113 56.5009 39.1408 56.7639C39.6101 56.9335 40.0073 57.262 40.2653 57.6939C40.5764 58.1993 40.733 58.7866 40.7155 59.3819C40.7283 59.8121 40.6566 60.2405 40.5046 60.6424C40.3526 61.0443 40.1233 61.4115 39.8301 61.7228C39.5312 62.0333 39.1714 62.2767 38.7738 62.4374C38.3762 62.598 37.9498 62.6723 37.5221 62.6555C35.8586 62.6555 34.7791 61.5743 34.2839 59.4122ZM48.1422 62.4737V51.6474H51.4349C51.9807 51.6212 52.5248 51.7284 53.0211 51.9601C53.4262 52.1857 53.7581 52.5254 53.9768 52.9381C54.2264 53.385 54.355 53.8908 54.3496 54.4043C54.3564 54.8724 54.246 55.3345 54.0286 55.7476C53.8157 56.1427 53.5025 56.473 53.1213 56.7042C53.6127 56.8815 54.0325 57.2185 54.3153 57.6627C54.6201 58.1631 54.7724 58.7434 54.7531 59.3311C54.766 59.9313 54.629 60.5251 54.3549 61.0574C54.1223 61.5207 53.752 61.8984 53.2963 62.137C52.7229 62.3873 52.1009 62.5024 51.4771 62.4737L48.1422 62.4737ZM49.3054 56.1992H51.2019C51.5578 56.2143 51.914 56.1795 52.2605 56.0959C52.5432 56.0051 52.788 55.8215 52.956 55.5739C53.1333 55.2732 53.2186 54.926 53.2013 54.5762C53.2128 54.2379 53.1364 53.9025 52.9797 53.6035C52.8493 53.3609 52.6403 53.1712 52.388 53.0664C51.958 52.9434 51.5109 52.8931 51.0648 52.9176H49.3054V56.1992ZM49.3054 61.2044H51.4841C51.8428 61.221 52.2016 61.1758 52.5454 61.0708C52.8617 60.9542 53.1285 60.7305 53.3006 60.4374C53.4825 60.0979 53.5714 59.7154 53.5582 59.3293C53.5706 58.9661 53.4849 58.6064 53.3103 58.2889C53.1585 58.0158 52.926 57.7978 52.6456 57.6654C52.2247 57.511 51.7773 57.4444 51.3303 57.4694H49.3054V61.2044ZM62.3839 62.4737V51.6474H68.7108V52.9176H63.548V56.2446H68.3961V57.5139H63.548V61.2044H68.9192V62.4737L62.3839 62.4737ZM76.0585 59.4122L77.1627 59.0567C77.2617 59.6264 77.4889 60.1653 77.8267 60.6316C77.9815 60.8804 78.1969 61.0847 78.4522 61.2248C78.7075 61.3649 78.9941 61.4361 79.2844 61.4315C79.5461 61.4429 79.8073 61.3993 80.0516 61.3035C80.296 61.2078 80.5181 61.0619 80.7041 60.875C80.8901 60.6882 81.036 60.4644 81.1326 60.2177C81.2291 59.971 81.2743 59.7067 81.2653 59.4415C81.2777 59.1775 81.2337 58.9139 81.1363 58.6687C81.0389 58.4234 80.8904 58.2024 80.7009 58.0208C80.2778 57.6553 79.7323 57.4687 79.1771 57.4997H78.625V56.2446C79.0318 56.2572 79.4386 56.2198 79.8365 56.1333C80.1427 56.035 80.4065 55.8335 80.5839 55.5623C80.8122 55.2483 80.9312 54.8664 80.9224 54.4765C80.9228 54.0358 80.7724 53.6087 80.4968 53.2677C80.3501 53.0846 80.1623 52.9395 79.9492 52.8445C79.736 52.7496 79.5036 52.7074 79.2712 52.7217C78.8761 52.7117 78.4902 52.8435 78.1818 53.094C77.8647 53.3638 77.6337 53.7227 77.518 54.1255C77.3954 54.4815 77.326 54.8541 77.3123 55.2309L76.207 54.9209C76.4787 52.6175 77.506 51.4657 79.2887 51.4657C79.6723 51.4475 80.055 51.5179 80.4078 51.6716C80.7605 51.8253 81.0742 52.0583 81.325 52.3529C81.8157 52.9239 82.0815 53.658 82.0715 54.415C82.0873 54.8731 81.9897 55.328 81.7878 55.7382C81.5859 56.1484 81.286 56.501 80.9154 56.7639C81.3846 56.9333 81.7816 57.2619 82.039 57.6939C82.3506 58.1991 82.5072 58.7865 82.4892 59.3819C82.5024 59.812 82.431 60.2405 82.2791 60.6424C82.1273 61.0443 81.898 61.4116 81.6047 61.7228C81.3057 62.0332 80.9459 62.2765 80.5483 62.4371C80.1508 62.5978 79.7244 62.6722 79.2967 62.6555C77.6332 62.6555 76.5538 61.5743 76.0585 59.4122ZM90.7522 51.6474H96.0785V61.2044H96.8558V64.9999H95.8253V62.4737H90.0365V64.9999H89.006V61.2044H89.6778C90.3943 59.8923 90.7525 57.2346 90.7522 53.2312V51.6474ZM94.9153 52.9176H91.8714V53.4726C91.8714 54.3847 91.8058 55.6359 91.6745 57.2262C91.5935 58.5841 91.3229 59.9235 90.8709 61.2044H94.9153L94.9153 52.9176ZM104.268 51.6474H105.312V60.2539L110 51.6474H111.162V62.4737H110.117V53.8548L105.422 62.4737H104.268V51.6474ZM119.098 62.4737V51.6474H125.425V52.9176H120.263V56.2446H125.112V57.5139H120.263V61.2044H125.634V62.4737H119.098ZM148.851 62.4737H147.686V51.6474H154.566V62.4737H153.402V52.9176H148.851V62.4737ZM162.495 62.4737V51.6474H165.799C166.379 51.6205 166.96 51.6903 167.518 51.8541C168.03 52.0449 168.458 52.4127 168.728 52.8927C169.045 53.4607 169.202 54.1059 169.181 54.7579C169.217 55.6136 168.957 56.4552 168.444 57.1363C168.117 57.4743 167.718 57.7329 167.278 57.8925C166.837 58.0522 166.367 58.1088 165.902 58.0582H163.659V62.4737H162.495ZM163.659 56.7889H165.924C166.49 56.8388 167.053 56.6623 167.492 56.2972C167.669 56.0968 167.804 55.8622 167.889 55.6074C167.974 55.3527 168.007 55.0831 167.987 54.815C167.997 54.4339 167.913 54.0562 167.742 53.7167C167.616 53.4492 167.41 53.2286 167.153 53.086C166.751 52.9472 166.326 52.89 165.902 52.9177H163.659L163.659 56.7889ZM176.364 57.2058C176.265 55.6895 176.691 54.1857 177.567 52.9524C177.918 52.4858 178.372 52.1085 178.892 51.8504C179.413 51.5923 179.985 51.4606 180.564 51.4657C181.32 51.4606 182.058 51.6924 182.678 52.1294C183.351 52.617 183.875 53.2857 184.192 54.0596C184.585 55.0127 184.775 56.0389 184.749 57.0713C184.81 58.4596 184.432 59.8313 183.671 60.9871C183.325 61.5045 182.858 61.9275 182.313 62.2185C181.767 62.5096 181.159 62.6596 180.542 62.6554C179.925 62.6512 179.319 62.4928 178.777 62.1943C178.235 61.8958 177.775 61.4665 177.436 60.9443C176.701 59.8426 176.326 58.5349 176.364 57.2058ZM177.557 57.2227C177.49 58.3284 177.798 59.4243 178.43 60.3279C178.674 60.6705 178.994 60.9493 179.365 61.1412C179.736 61.3332 180.147 61.4327 180.563 61.4316C180.98 61.4305 181.39 61.3287 181.76 61.1347C182.13 60.9408 182.449 60.6602 182.69 60.3164C183.331 59.3515 183.635 58.1975 183.555 57.0375C183.569 56.1843 183.418 55.3367 183.111 54.5425C182.899 54.0041 182.541 53.5376 182.078 53.1974C181.643 52.8687 181.115 52.6912 180.572 52.6915C180.15 52.6862 179.733 52.7839 179.357 52.9763C178.98 53.1687 178.654 53.4502 178.408 53.7969C177.765 54.8151 177.466 56.0176 177.557 57.2227ZM195.385 52.948V51.6474H196.474V52.9479C196.974 52.9601 197.467 53.0767 197.921 53.2903C198.375 53.504 198.781 53.8101 199.113 54.1896C199.773 54.9744 200.12 55.9804 200.086 57.0107C200.119 58.0407 199.777 59.047 199.125 59.8379C198.792 60.2198 198.384 60.5276 197.928 60.742C197.472 60.9563 196.977 61.0725 196.474 61.0832V62.4737H195.385V61.0832C194.897 61.0713 194.417 60.9615 193.972 60.7603C193.527 60.5591 193.125 60.2704 192.791 59.911C192.124 59.0963 191.759 58.071 191.759 57.0125C191.759 55.9539 192.124 54.9286 192.791 54.1139C193.126 53.7563 193.528 53.4693 193.973 53.2692C194.418 53.0691 194.898 52.96 195.385 52.948ZM196.474 54.1718V59.8585C197.131 59.8298 197.753 59.5523 198.217 59.0808C198.459 58.7986 198.643 58.4708 198.759 58.1163C198.875 57.7618 198.92 57.3876 198.893 57.0151C198.934 56.2815 198.704 55.5585 198.247 54.9878C198.022 54.7372 197.748 54.5357 197.443 54.3954C197.138 54.2552 196.809 54.1791 196.474 54.1718ZM195.385 54.1718C195.053 54.1789 194.726 54.2534 194.424 54.3908C194.121 54.5282 193.849 54.7258 193.623 54.9717C193.188 55.5628 192.953 56.2807 192.953 57.0183C192.953 57.7559 193.188 58.4737 193.623 59.0648C193.849 59.3105 194.121 59.5075 194.424 59.6439C194.727 59.7803 195.053 59.8533 195.385 59.8585V54.1718ZM207.569 62.4737V51.6474H213.896V52.9176H208.734V56.2446H213.583V57.5139H208.734V61.2044H214.105V62.4737H207.569ZM227.943 58.6782L229.108 59.0417C228.947 60.0675 228.475 61.0171 227.757 61.7585C227.118 62.3545 226.275 62.6761 225.407 62.6555C224.668 62.6763 223.942 62.4661 223.325 62.0533C222.682 61.5604 222.192 60.8904 221.913 60.123C221.527 59.1255 221.34 58.0599 221.363 56.9885C221.334 55.9518 221.522 54.9207 221.913 53.9625C222.225 53.2092 222.743 52.5615 223.405 52.0955C224.026 51.6768 224.757 51.4574 225.503 51.4657C226.302 51.4491 227.079 51.7339 227.683 52.2648C228.342 52.8911 228.788 53.7123 228.959 54.611L227.824 54.9442C227.437 53.4423 226.656 52.6914 225.481 52.6914C224.941 52.6788 224.411 52.8373 223.965 53.1448C223.494 53.5045 223.138 53.996 222.939 54.5585C222.661 55.3366 222.531 56.1612 222.557 56.9885C222.478 58.1525 222.748 59.3136 223.331 60.3199C223.551 60.6669 223.856 60.9512 224.215 61.1457C224.575 61.3402 224.977 61.4386 225.385 61.4316C225.689 61.4355 225.991 61.3769 226.272 61.2593C226.554 61.1417 226.809 60.9676 227.022 60.7475C227.538 60.1741 227.86 59.4495 227.943 58.6782ZM242.796 58.6782L243.96 59.0417C243.8 60.0673 243.328 61.017 242.61 61.7585C241.971 62.3545 241.129 62.6761 240.26 62.6555C239.522 62.6763 238.795 62.4661 238.178 62.0533C237.534 61.5602 237.044 60.8903 236.765 60.123C236.379 59.1253 236.193 58.0598 236.217 56.9885C236.187 55.9519 236.374 54.9208 236.765 53.9625C237.078 53.2097 237.596 52.5623 238.257 52.0955C238.879 51.6768 239.611 51.4574 240.357 51.4657C241.156 51.4491 241.933 51.7338 242.537 52.2648C243.194 52.8919 243.641 53.7127 243.812 54.611L242.677 54.9442C242.289 53.4423 241.508 52.6914 240.334 52.6914C239.794 52.6789 239.264 52.8374 238.817 53.1448C238.347 53.5049 237.991 53.9962 237.793 54.5585C237.514 55.3364 237.384 56.1612 237.411 56.9885C237.332 58.1524 237.601 59.3133 238.184 60.3199C238.404 60.6669 238.709 60.9512 239.068 61.1457C239.427 61.3403 239.83 61.4386 240.237 61.4316C240.542 61.4353 240.844 61.3766 241.125 61.259C241.406 61.1415 241.661 60.9675 241.874 60.7475C242.391 60.1744 242.713 59.4496 242.796 58.6782ZM251.442 51.6475H252.487V60.254L257.176 51.6475H258.336V62.4737H257.292V53.8548L252.597 62.4737H251.442L251.442 51.6475ZM265.93 57.2058C265.831 55.6893 266.256 54.1852 267.134 52.9524C267.485 52.4857 267.938 52.1084 268.459 51.8503C268.979 51.5922 269.551 51.4606 270.13 51.4657C270.885 51.4604 271.624 51.6923 272.244 52.1294C272.917 52.6168 273.441 53.2855 273.758 54.0596C274.151 55.0125 274.341 56.0388 274.316 57.0713C274.376 58.4595 273.999 59.8311 273.237 60.9871C272.898 61.5072 272.434 61.9326 271.89 62.2241C271.346 62.5156 270.738 62.6639 270.122 62.6555C269.501 62.6638 268.888 62.5109 268.342 62.2113C267.796 61.9118 267.335 61.4756 267.002 60.9443C266.267 59.8425 265.892 58.5349 265.93 57.2058ZM267.123 57.2227C267.056 58.3285 267.364 59.4243 267.997 60.3279C268.24 60.6704 268.561 60.9493 268.932 61.1412C269.303 61.3331 269.714 61.4327 270.13 61.4315C270.547 61.4304 270.957 61.3286 271.327 61.1347C271.697 60.9407 272.016 60.6602 272.257 60.3163C272.897 59.3513 273.202 58.1974 273.122 57.0374C273.136 56.1843 272.985 55.3368 272.677 54.5424C272.466 54.0042 272.108 53.5378 271.645 53.1973C271.21 52.8687 270.681 52.6913 270.138 52.6914C269.716 52.686 269.299 52.7836 268.923 52.976C268.546 53.1684 268.221 53.45 267.974 53.7968C267.331 54.8147 267.032 56.0174 267.123 57.2227ZM281.787 62.4737V51.6474H282.952V56.1083H287.503V51.6474H288.667V62.4737H287.503V57.3777H282.952V62.4737L281.787 62.4737ZM295.686 62.4737L299.06 51.6474H300.304L303.877 62.4737H302.552L301.544 59.1931H297.852L296.904 62.4737L295.686 62.4737ZM298.191 58.0288H301.19L300.271 55.0288C299.988 54.1095 299.78 53.3616 299.648 52.7849C299.533 53.484 299.372 54.1747 299.168 54.8524L298.191 58.0288ZM311.464 51.6474H316.955V62.4737H315.791V52.9176H312.629V58.4947C312.645 59.3183 312.602 60.142 312.501 60.9594C312.446 61.4222 312.256 61.8577 311.953 62.2091C311.822 62.3532 311.662 62.4675 311.483 62.5444C311.305 62.6213 311.113 62.6592 310.919 62.6554C310.601 62.6456 310.286 62.5842 309.987 62.4737L310.183 61.2044C310.332 61.2929 310.499 61.3448 310.671 61.3558C310.792 61.3582 310.912 61.3262 311.016 61.2634C311.12 61.2006 311.204 61.1094 311.26 61.0004C311.444 60.4424 311.513 59.8522 311.464 59.2661L311.464 51.6474ZM324.561 57.2058C324.462 55.6893 324.888 54.1854 325.765 52.9524C326.116 52.4857 326.57 52.1083 327.09 51.8502C327.611 51.5922 328.183 51.4605 328.762 51.4657C329.518 51.4605 330.256 51.6924 330.876 52.1293C331.548 52.6174 332.073 53.2859 332.391 54.0596C332.783 55.0129 332.972 56.0389 332.948 57.0713C333.008 58.4595 332.63 59.8311 331.869 60.987C331.523 61.5045 331.056 61.9275 330.511 62.2185C329.965 62.5095 329.356 62.6596 328.74 62.6554C328.123 62.6511 327.517 62.4928 326.975 62.1943C326.433 61.8958 325.972 61.4664 325.633 60.9443C324.898 59.8425 324.524 58.5349 324.561 57.2058ZM325.755 57.2227C325.688 58.3284 325.996 59.4242 326.629 60.3279C326.872 60.6705 327.192 60.9493 327.563 61.1412C327.934 61.3332 328.345 61.4327 328.761 61.4316C329.178 61.4304 329.588 61.3287 329.958 61.1347C330.328 60.9407 330.647 60.6602 330.888 60.3163C331.529 59.3515 331.834 58.1975 331.753 57.0374C331.768 56.1843 331.616 55.3367 331.309 54.5424C331.097 54.0042 330.739 53.5378 330.276 53.1974C329.841 52.8685 329.312 52.6911 328.769 52.6914C328.348 52.6861 327.931 52.7838 327.555 52.9762C327.178 53.1686 326.853 53.4501 326.607 53.7969C325.963 54.8146 325.664 56.0173 325.755 57.2227ZM340.389 62.4737V51.6474H343.683C344.228 51.6214 344.772 51.7286 345.269 51.9601C345.674 52.1858 346.005 52.5255 346.224 52.9381C346.474 53.385 346.602 53.8908 346.597 54.4043C346.604 54.8724 346.494 55.3345 346.276 55.7476C346.063 56.1427 345.75 56.473 345.368 56.7042C345.86 56.8815 346.279 57.2185 346.562 57.6627C346.867 58.1631 347.019 58.7434 347 59.3311C347.013 59.9313 346.876 60.5251 346.603 61.0574C346.37 61.5205 346 61.8981 345.545 62.137C344.971 62.3871 344.348 62.5022 343.724 62.4737L340.389 62.4737ZM341.553 56.1992H343.449C343.805 56.2143 344.161 56.1795 344.508 56.0959C344.791 56.005 345.036 55.8213 345.204 55.5739C345.381 55.2732 345.466 54.926 345.448 54.5763C345.46 54.2379 345.383 53.9023 345.226 53.6036C345.096 53.3606 344.887 53.1707 344.634 53.0664C344.204 52.9433 343.758 52.893 343.312 52.9177H341.553L341.553 56.1992ZM341.553 61.2044H343.732C344.091 61.221 344.449 61.1758 344.793 61.0708C345.109 60.9545 345.375 60.7306 345.547 60.4375C345.73 60.0985 345.82 59.7157 345.806 59.3294C345.818 58.9662 345.732 58.6066 345.558 58.289C345.406 58.0162 345.173 57.7983 344.893 57.6654C344.472 57.5112 344.025 57.4446 343.578 57.4695H341.553V61.2044Z" fill="#2583CE"/>
<path d="M30.1834 25.6587C29.5195 25.6604 28.8701 25.4625 28.3174 25.0899C27.7647 24.7173 27.3336 24.1869 27.0788 23.5658C26.8239 22.9448 26.7568 22.261 26.886 21.6013C27.0151 20.9416 27.3346 20.3355 27.8041 19.86C28.2735 19.3844 28.8717 19.0607 29.5229 18.93C30.1741 18.7992 30.849 18.8673 31.462 19.1255C32.075 19.3838 32.5985 19.8205 32.9662 20.3805C33.3339 20.9405 33.5293 21.5985 33.5275 22.2711C33.5269 23.1694 33.1744 24.0308 32.5474 24.666C31.9204 25.3012 31.0701 25.6582 30.1834 25.6587ZM57.8286 13.7916C54.2156 8.003 47.0057 3.57617 38.1657 1.89022H38.149C35.5231 1.38602 32.856 1.13523 30.1834 1.14122C29.0403 1.14122 27.9481 1.19269 26.8388 1.26091L12.5706 19.0522C15.9163 16.4247 19.8876 14.739 24.0827 14.1656C22.9257 15.0563 21.9733 16.1909 21.2913 17.4909C20.6093 18.7909 20.2139 20.2254 20.1324 21.6953C20.0509 23.1653 20.2853 24.6356 20.8194 26.0048C21.3535 27.374 22.1745 28.6095 23.2258 29.6259C17.5954 27.9916 13.1926 24.7568 11.2098 20.739C11.1531 20.6457 11.1026 20.5488 11.0584 20.4488L11.0415 20.4148C10.3949 19.0185 10.0565 17.4961 10.0499 15.9538C10.0499 8.49686 20.2007 2.45215 23.6459 1.63508C10.1172 3.72905 0 12.1571 0 22.2711C0.0234958 25.2803 0.904704 28.2186 2.53761 30.7324C6.13457 36.4877 13.3104 40.9145 22.0999 42.617C23.6608 42.9214 25.2373 43.1374 26.8219 43.2639C27.9312 43.332 29.0403 43.3828 30.1834 43.3828C31.3095 43.3828 32.4016 43.332 33.5111 43.2639H33.5275L47.7624 25.5232C44.4139 28.1145 40.4586 29.7805 36.2838 30.3583C37.5138 29.4108 38.5105 28.1875 39.1957 26.7844C39.8809 25.3813 40.236 23.8365 40.2332 22.2711C40.2322 20.8948 39.958 19.5329 39.4267 18.2662C38.8955 16.9996 38.1182 15.8542 37.141 14.8981C42.7544 16.5324 47.174 19.767 49.157 23.7859C49.2073 23.889 49.2577 23.9904 49.3082 24.0926V24.1101C49.9548 25.5063 50.2931 27.0286 50.2995 28.5709C50.2995 36.028 40.1487 42.0717 36.704 42.8889C50.2494 40.7947 60.3666 32.3668 60.3666 22.2711C60.3433 19.2561 59.4621 16.3119 57.8286 13.7916Z" fill="#2583CE"/>
</g>
<defs>
<clipPath id="clip0_146518_42">
<rect width="347" height="65" fill="white"/>
</clipPath>
</defs>
</svg>
